<svg xmlns="http://www.w3.org/2000/svg" xmlns:xlink="http://www.w3.org/1999/xlink" width="500" zoomAndPan="magnify" viewBox="0 0 375 374.999991" height="500" preserveAspectRatio="xMidYMid meet" version="1.0"><defs><clipPath id="53f6d38d30"><path d="M 161 199 L 301 199 L 301 330 L 161 330 Z M 161 199 " clip-rule="nonzero"/></clipPath><clipPath id="544fd3b2cd"><path d="M -11.75 79.136719 L 261.585938 -27.085938 L 387.097656 295.882812 L 113.761719 402.109375 Z M -11.75 79.136719 " clip-rule="nonzero"/></clipPath><clipPath id="c71cc324e7"><path d="M -11.75 79.136719 L 261.585938 -27.085938 L 387.097656 295.882812 L 113.761719 402.109375 Z M -11.75 79.136719 " clip-rule="nonzero"/></clipPath><clipPath id="e2a3e46596"><path d="M -11.75 79.136719 L 261.585938 -27.085938 L 387.097656 295.882812 L 113.761719 402.109375 Z M -11.75 79.136719 " clip-rule="nonzero"/></clipPath><clipPath id="ca382acc32"><path d="M 81 106 L 182 106 L 182 207 L 81 207 Z M 81 106 " clip-rule="nonzero"/></clipPath><clipPath id="8bc2afb437"><path d="M -11.75 79.136719 L 261.585938 -27.085938 L 387.097656 295.882812 L 113.761719 402.109375 Z M -11.75 79.136719 " clip-rule="nonzero"/></clipPath><clipPath id="fba27da1e6"><path d="M -11.75 79.136719 L 261.585938 -27.085938 L 387.097656 295.882812 L 113.761719 402.109375 Z M -11.75 79.136719 " clip-rule="nonzero"/></clipPath><clipPath id="c1698da49b"><path d="M -11.75 79.136719 L 261.585938 -27.085938 L 387.097656 295.882812 L 113.761719 402.109375 Z M -11.75 79.136719 " clip-rule="nonzero"/></clipPath><clipPath id="e35c9e63bf"><path d="M 81 113 L 324 113 L 324 349 L 81 349 Z M 81 113 " clip-rule="nonzero"/></clipPath><clipPath id="d7869f6330"><path d="M -11.75 79.136719 L 261.585938 -27.085938 L 387.097656 295.882812 L 113.761719 402.109375 Z M -11.75 79.136719 " clip-rule="nonzero"/></clipPath><clipPath id="933b174cb8"><path d="M -11.75 79.136719 L 261.585938 -27.085938 L 387.097656 295.882812 L 113.761719 402.109375 Z M -11.75 79.136719 " clip-rule="nonzero"/></clipPath><clipPath id="337db12e3f"><path d="M -11.75 79.136719 L 261.585938 -27.085938 L 387.097656 295.882812 L 113.761719 402.109375 Z M -11.75 79.136719 " clip-rule="nonzero"/></clipPath><clipPath id="fab2bbf60b"><path d="M 0 75 L 129 75 L 129 195 L 0 195 Z M 0 75 " clip-rule="nonzero"/></clipPath><clipPath id="ac49c9597a"><path d="M -11.75 79.136719 L 261.585938 -27.085938 L 387.097656 295.882812 L 113.761719 402.109375 Z M -11.75 79.136719 " clip-rule="nonzero"/></clipPath><clipPath id="b76dab1ba1"><path d="M -11.75 79.136719 L 261.585938 -27.085938 L 387.097656 295.882812 L 113.761719 402.109375 Z M -11.75 79.136719 " clip-rule="nonzero"/></clipPath><clipPath id="d281cb3385"><path d="M -11.75 79.136719 L 261.585938 -27.085938 L 387.097656 295.882812 L 113.761719 402.109375 Z M -11.75 79.136719 " clip-rule="nonzero"/></clipPath><clipPath id="faf3520a9a"><path d="M 63 14 L 192 14 L 192 152 L 63 152 Z M 63 14 " clip-rule="nonzero"/></clipPath><clipPath id="f6414ad3a5"><path d="M -11.75 79.136719 L 261.585938 -27.085938 L 387.097656 295.882812 L 113.761719 402.109375 Z M -11.75 79.136719 " clip-rule="nonzero"/></clipPath><clipPath id="f592b5130c"><path d="M -11.75 79.136719 L 261.585938 -27.085938 L 387.097656 295.882812 L 113.761719 402.109375 Z M -11.75 79.136719 " clip-rule="nonzero"/></clipPath><clipPath id="144f0fef69"><path d="M -11.75 79.136719 L 261.585938 -27.085938 L 387.097656 295.882812 L 113.761719 402.109375 Z M -11.75 79.136719 " clip-rule="nonzero"/></clipPath><clipPath id="f8967ff696"><path d="M 198 272 L 225 272 L 225 314 L 198 314 Z M 198 272 " clip-rule="nonzero"/></clipPath><clipPath id="66c0c58181"><path d="M -11.75 79.136719 L 261.585938 -27.085938 L 387.097656 295.882812 L 113.761719 402.109375 Z M -11.75 79.136719 " clip-rule="nonzero"/></clipPath><clipPath id="89861e8c2c"><path d="M -11.75 79.136719 L 261.585938 -27.085938 L 387.097656 295.882812 L 113.761719 402.109375 Z M -11.75 79.136719 " clip-rule="nonzero"/></clipPath><clipPath id="93127b4809"><path d="M -11.75 79.136719 L 261.585938 -27.085938 L 387.097656 295.882812 L 113.761719 402.109375 Z M -11.75 79.136719 " clip-rule="nonzero"/></clipPath><clipPath id="eb41c295c4"><path d="M 87 195 L 113 195 L 113 222 L 87 222 Z M 87 195 " clip-rule="nonzero"/></clipPath><clipPath id="b203c67281"><path d="M -11.75 79.136719 L 261.585938 -27.085938 L 387.097656 295.882812 L 113.761719 402.109375 Z M -11.75 79.136719 " clip-rule="nonzero"/></clipPath><clipPath id="414d6325e4"><path d="M -11.75 79.136719 L 261.585938 -27.085938 L 387.097656 295.882812 L 113.761719 402.109375 Z M -11.75 79.136719 " clip-rule="nonzero"/></clipPath><clipPath id="942c9d13e4"><path d="M -11.75 79.136719 L 261.585938 -27.085938 L 387.097656 295.882812 L 113.761719 402.109375 Z M -11.75 79.136719 " clip-rule="nonzero"/></clipPath><clipPath id="9f581b68e2"><path d="M 257 213 L 284 213 L 284 239 L 257 239 Z M 257 213 " clip-rule="nonzero"/></clipPath><clipPath id="267d5f6e65"><path d="M -11.75 79.136719 L 261.585938 -27.085938 L 387.097656 295.882812 L 113.761719 402.109375 Z M -11.75 79.136719 " clip-rule="nonzero"/></clipPath><clipPath id="d03ef6d0e1"><path d="M -11.75 79.136719 L 261.585938 -27.085938 L 387.097656 295.882812 L 113.761719 402.109375 Z M -11.75 79.136719 " clip-rule="nonzero"/></clipPath><clipPath id="fcbb741323"><path d="M -11.75 79.136719 L 261.585938 -27.085938 L 387.097656 295.882812 L 113.761719 402.109375 Z M -11.75 79.136719 " clip-rule="nonzero"/></clipPath><clipPath id="382931730e"><path d="M 133 153 L 160 153 L 160 179 L 133 179 Z M 133 153 " clip-rule="nonzero"/></clipPath><clipPath id="c84d717eea"><path d="M -11.75 79.136719 L 261.585938 -27.085938 L 387.097656 295.882812 L 113.761719 402.109375 Z M -11.75 79.136719 " clip-rule="nonzero"/></clipPath><clipPath id="36e193f970"><path d="M -11.75 79.136719 L 261.585938 -27.085938 L 387.097656 295.882812 L 113.761719 402.109375 Z M -11.75 79.136719 " clip-rule="nonzero"/></clipPath><clipPath id="76ea0ad191"><path d="M -11.75 79.136719 L 261.585938 -27.085938 L 387.097656 295.882812 L 113.761719 402.109375 Z M -11.75 79.136719 " clip-rule="nonzero"/></clipPath><clipPath id="64295c5c7e"><path d="M 183 154 L 231 154 L 231 202 L 183 202 Z M 183 154 " clip-rule="nonzero"/></clipPath><clipPath id="e8230bc0cc"><path d="M -11.75 79.136719 L 261.585938 -27.085938 L 387.097656 295.882812 L 113.761719 402.109375 Z M -11.75 79.136719 " clip-rule="nonzero"/></clipPath><clipPath id="27439b2597"><path d="M -11.75 79.136719 L 261.585938 -27.085938 L 387.097656 295.882812 L 113.761719 402.109375 Z M -11.75 79.136719 " clip-rule="nonzero"/></clipPath><clipPath id="7d96454456"><path d="M -11.75 79.136719 L 261.585938 -27.085938 L 387.097656 295.882812 L 113.761719 402.109375 Z M -11.75 79.136719 " clip-rule="nonzero"/></clipPath><clipPath id="6512dcb2e4"><path d="M 110 279 L 157 279 L 157 327 L 110 327 Z M 110 279 " clip-rule="nonzero"/></clipPath><clipPath id="20414aa101"><path d="M -11.75 79.136719 L 261.585938 -27.085938 L 387.097656 295.882812 L 113.761719 402.109375 Z M -11.75 79.136719 " clip-rule="nonzero"/></clipPath><clipPath id="a5aae9b53c"><path d="M -11.75 79.136719 L 261.585938 -27.085938 L 387.097656 295.882812 L 113.761719 402.109375 Z M -11.75 79.136719 " clip-rule="nonzero"/></clipPath><clipPath id="8fe3582037"><path d="M -11.75 79.136719 L 261.585938 -27.085938 L 387.097656 295.882812 L 113.761719 402.109375 Z M -11.75 79.136719 " clip-rule="nonzero"/></clipPath><clipPath id="1a87c98278"><path d="M 141 230 L 159 230 L 159 248 L 141 248 Z M 141 230 " clip-rule="nonzero"/></clipPath><clipPath id="7e6856fb68"><path d="M -11.75 79.136719 L 261.585938 -27.085938 L 387.097656 295.882812 L 113.761719 402.109375 Z M -11.75 79.136719 " clip-rule="nonzero"/></clipPath><clipPath id="99fce9e10b"><path d="M -11.75 79.136719 L 261.585938 -27.085938 L 387.097656 295.882812 L 113.761719 402.109375 Z M -11.75 79.136719 " clip-rule="nonzero"/></clipPath><clipPath id="a5314355cc"><path d="M -11.75 79.136719 L 261.585938 -27.085938 L 387.097656 295.882812 L 113.761719 402.109375 Z M -11.75 79.136719 " clip-rule="nonzero"/></clipPath><clipPath id="758307a73d"><path d="M 276 167 L 293 167 L 293 185 L 276 185 Z M 276 167 " clip-rule="nonzero"/></clipPath><clipPath id="38d3d96295"><path d="M -11.75 79.136719 L 261.585938 -27.085938 L 387.097656 295.882812 L 113.761719 402.109375 Z M -11.75 79.136719 " clip-rule="nonzero"/></clipPath><clipPath id="8233e8d1cb"><path d="M -11.75 79.136719 L 261.585938 -27.085938 L 387.097656 295.882812 L 113.761719 402.109375 Z M -11.75 79.136719 " clip-rule="nonzero"/></clipPath><clipPath id="689923ae5c"><path d="M -11.75 79.136719 L 261.585938 -27.085938 L 387.097656 295.882812 L 113.761719 402.109375 Z M -11.75 79.136719 " clip-rule="nonzero"/></clipPath><clipPath id="60a7b7b0f0"><path d="M 221 126 L 239 126 L 239 144 L 221 144 Z M 221 126 " clip-rule="nonzero"/></clipPath><clipPath id="3cd09892fb"><path d="M -11.75 79.136719 L 261.585938 -27.085938 L 387.097656 295.882812 L 113.761719 402.109375 Z M -11.75 79.136719 " clip-rule="nonzero"/></clipPath><clipPath id="a075f4e985"><path d="M -11.75 79.136719 L 261.585938 -27.085938 L 387.097656 295.882812 L 113.761719 402.109375 Z M -11.75 79.136719 " clip-rule="nonzero"/></clipPath><clipPath id="d5468435c1"><path d="M -11.75 79.136719 L 261.585938 -27.085938 L 387.097656 295.882812 L 113.761719 402.109375 Z M -11.75 79.136719 " clip-rule="nonzero"/></clipPath></defs><g clip-path="url(#53f6d38d30)"><g clip-path="url(#544fd3b2cd)"><g clip-path="url(#c71cc324e7)"><g clip-path="url(#e2a3e46596)"><path fill="#000000" d="M 296.890625 238.710938 C 297.273438 239.691406 297.625 240.675781 297.953125 241.671875 C 298.277344 242.667969 298.578125 243.675781 298.851562 244.6875 C 299.121094 245.703125 299.367188 246.722656 299.585938 247.75 C 299.804688 248.777344 299.992188 249.8125 300.15625 250.851562 C 300.320312 251.894531 300.453125 252.9375 300.5625 253.988281 C 300.667969 255.039062 300.746094 256.089844 300.796875 257.148438 C 300.847656 258.203125 300.871094 259.261719 300.867188 260.324219 C 300.863281 261.386719 300.832031 262.445312 300.769531 263.507812 C 300.707031 264.574219 300.621094 265.636719 300.503906 266.699219 C 300.386719 267.757812 300.242188 268.820312 300.070312 269.878906 C 299.898438 270.9375 299.699219 271.996094 299.472656 273.046875 C 299.242188 274.101562 298.988281 275.148438 298.707031 276.195312 C 298.425781 277.238281 298.117188 278.277344 297.78125 279.3125 C 297.445312 280.347656 297.082031 281.375 296.695312 282.394531 C 296.304688 283.414062 295.890625 284.429688 295.449219 285.433594 C 295.007812 286.4375 294.542969 287.433594 294.050781 288.421875 C 293.558594 289.40625 293.039062 290.382812 292.496094 291.351562 C 291.957031 292.316406 291.390625 293.269531 290.800781 294.214844 C 290.207031 295.15625 289.59375 296.089844 288.957031 297.007812 C 288.316406 297.925781 287.65625 298.828125 286.972656 299.71875 C 286.289062 300.609375 285.585938 301.484375 284.859375 302.347656 C 284.128906 303.207031 283.382812 304.050781 282.613281 304.882812 C 281.84375 305.710938 281.050781 306.523438 280.242188 307.320312 C 279.433594 308.117188 278.601562 308.894531 277.753906 309.652344 C 276.90625 310.414062 276.039062 311.15625 275.152344 311.878906 C 274.269531 312.601562 273.367188 313.304688 272.449219 313.988281 C 271.527344 314.671875 270.59375 315.335938 269.640625 315.980469 C 268.691406 316.621094 267.726562 317.242188 266.742188 317.84375 C 265.761719 318.445312 264.769531 319.023438 263.757812 319.582031 C 262.75 320.136719 261.730469 320.671875 260.695312 321.183594 C 259.664062 321.695312 258.617188 322.183594 257.5625 322.648438 C 256.507812 323.117188 255.441406 323.558594 254.367188 323.976562 C 253.289062 324.394531 252.207031 324.789062 251.113281 325.15625 C 250.019531 325.527344 248.917969 325.871094 247.8125 326.191406 C 246.703125 326.511719 245.589844 326.808594 244.46875 327.078125 C 243.347656 327.347656 242.226562 327.59375 241.09375 327.8125 C 239.964844 328.03125 238.832031 328.226562 237.699219 328.394531 C 236.5625 328.5625 235.425781 328.703125 234.285156 328.820312 C 233.144531 328.9375 232.003906 329.027344 230.863281 329.089844 C 229.722656 329.15625 228.582031 329.191406 227.445312 329.207031 C 226.304688 329.21875 225.167969 329.203125 224.03125 329.164062 C 222.898438 329.125 221.765625 329.058594 220.636719 328.964844 C 219.511719 328.875 218.386719 328.757812 217.269531 328.613281 C 216.152344 328.46875 215.039062 328.296875 213.933594 328.101562 C 212.828125 327.90625 211.730469 327.6875 210.640625 327.441406 C 209.550781 327.195312 208.46875 326.921875 207.398438 326.625 C 206.324219 326.328125 205.261719 326.007812 204.210938 325.660156 C 203.15625 325.3125 202.117188 324.941406 201.085938 324.546875 C 200.058594 324.152344 199.042969 323.734375 198.039062 323.289062 C 197.035156 322.847656 196.042969 322.378906 195.066406 321.890625 C 194.089844 321.398438 193.128906 320.886719 192.183594 320.347656 C 191.238281 319.8125 190.308594 319.253906 189.394531 318.675781 C 188.480469 318.09375 187.585938 317.492188 186.707031 316.871094 C 185.828125 316.246094 184.96875 315.601562 184.125 314.9375 C 183.285156 314.273438 182.460938 313.585938 181.65625 312.882812 C 180.855469 312.179688 180.070312 311.453125 179.308594 310.710938 C 178.546875 309.96875 177.804688 309.207031 177.085938 308.429688 C 176.363281 307.648438 175.667969 306.851562 174.992188 306.039062 C 174.316406 305.222656 173.664062 304.394531 173.03125 303.546875 C 172.402344 302.699219 171.796875 301.839844 171.214844 300.960938 C 170.632812 300.085938 170.074219 299.195312 169.539062 298.289062 C 169.007812 297.382812 168.5 296.464844 168.015625 295.535156 C 167.53125 294.601562 167.074219 293.65625 166.640625 292.703125 C 166.210938 291.746094 165.804688 290.78125 165.425781 289.804688 C 165.042969 288.824219 164.691406 287.839844 164.363281 286.84375 C 164.039062 285.84375 163.738281 284.839844 163.464844 283.828125 C 163.195312 282.8125 162.949219 281.792969 162.730469 280.765625 C 162.511719 279.734375 162.324219 278.703125 162.160156 277.660156 C 161.996094 276.621094 161.863281 275.578125 161.753906 274.527344 C 161.648438 273.476562 161.570312 272.425781 161.519531 271.367188 C 161.46875 270.3125 161.445312 269.253906 161.449219 268.191406 C 161.453125 267.128906 161.484375 266.066406 161.546875 265.003906 C 161.609375 263.941406 161.695312 262.878906 161.8125 261.816406 C 161.929688 260.753906 162.074219 259.695312 162.246094 258.636719 C 162.417969 257.578125 162.617188 256.519531 162.84375 255.46875 C 163.074219 254.414062 163.328125 253.363281 163.609375 252.320312 C 163.890625 251.273438 164.199219 250.234375 164.535156 249.203125 C 164.871094 248.167969 165.234375 247.140625 165.621094 246.121094 C 166.011719 245.097656 166.425781 244.085938 166.867188 243.082031 C 167.308594 242.078125 167.773438 241.082031 168.265625 240.09375 C 168.757812 239.105469 169.277344 238.128906 169.816406 237.164062 C 170.359375 236.199219 170.925781 235.242188 171.515625 234.300781 C 172.109375 233.359375 172.722656 232.425781 173.359375 231.507812 C 173.996094 230.589844 174.660156 229.6875 175.34375 228.796875 C 176.027344 227.90625 176.730469 227.03125 177.457031 226.167969 C 178.1875 225.308594 178.933594 224.460938 179.703125 223.632812 C 180.472656 222.804688 181.265625 221.992188 182.074219 221.195312 C 182.882812 220.398438 183.714844 219.621094 184.5625 218.859375 C 185.410156 218.101562 186.277344 217.359375 187.164062 216.636719 C 188.046875 215.914062 188.949219 215.210938 189.867188 214.527344 C 190.789062 213.84375 191.722656 213.179688 192.675781 212.535156 C 193.625 211.894531 194.589844 211.269531 195.574219 210.671875 C 196.554688 210.070312 197.546875 209.492188 198.558594 208.933594 C 199.566406 208.378906 200.585938 207.84375 201.621094 207.332031 C 202.652344 206.820312 203.699219 206.332031 204.753906 205.863281 C 205.808594 205.398438 206.875 204.957031 207.949219 204.539062 C 209.027344 204.121094 210.109375 203.726562 211.203125 203.359375 C 212.296875 202.988281 213.398438 202.644531 214.503906 202.324219 C 215.613281 202.003906 216.726562 201.707031 217.847656 201.4375 C 218.96875 201.167969 220.089844 200.921875 221.21875 200.703125 C 222.351562 200.484375 223.480469 200.289062 224.617188 200.121094 C 225.753906 199.953125 226.890625 199.8125 228.03125 199.695312 C 229.171875 199.578125 230.3125 199.488281 231.453125 199.425781 C 232.59375 199.359375 233.734375 199.320312 234.871094 199.308594 C 236.011719 199.296875 237.148438 199.3125 238.285156 199.351562 C 239.417969 199.390625 240.550781 199.457031 241.675781 199.550781 C 242.804688 199.640625 243.929688 199.757812 245.046875 199.902344 C 246.164062 200.046875 247.277344 200.214844 248.382812 200.410156 C 249.488281 200.605469 250.585938 200.828125 251.675781 201.074219 C 252.765625 201.320312 253.847656 201.59375 254.917969 201.890625 C 255.992188 202.1875 257.054688 202.507812 258.105469 202.855469 C 259.160156 203.199219 260.199219 203.570312 261.230469 203.96875 C 262.257812 204.363281 263.273438 204.78125 264.277344 205.226562 C 265.28125 205.667969 266.273438 206.136719 267.25 206.625 C 268.222656 207.117188 269.1875 207.628906 270.132812 208.164062 C 271.078125 208.703125 272.007812 209.257812 272.921875 209.839844 C 273.832031 210.421875 274.730469 211.023438 275.609375 211.644531 C 276.488281 212.269531 277.347656 212.914062 278.191406 213.578125 C 279.03125 214.242188 279.855469 214.925781 280.660156 215.632812 C 281.460938 216.335938 282.246094 217.058594 283.007812 217.804688 C 283.769531 218.546875 284.511719 219.308594 285.230469 220.085938 C 285.949219 220.867188 286.648438 221.664062 287.324219 222.476562 C 288 223.289062 288.652344 224.121094 289.28125 224.96875 C 289.914062 225.8125 290.519531 226.675781 291.101562 227.550781 C 291.683594 228.429688 292.242188 229.320312 292.773438 230.226562 C 293.308594 231.132812 293.816406 232.050781 294.300781 232.980469 C 294.785156 233.914062 295.242188 234.855469 295.675781 235.8125 C 296.105469 236.769531 296.511719 237.734375 296.890625 238.710938 Z M 296.890625 238.710938 " fill-opacity="1" fill-rule="nonzero"/></g></g></g></g><g clip-path="url(#ca382acc32)"><g clip-path="url(#8bc2afb437)"><g clip-path="url(#fba27da1e6)"><g clip-path="url(#c1698da49b)"><path fill="#000000" d="M 178.335938 138.175781 C 178.925781 139.699219 179.441406 141.246094 179.878906 142.816406 C 180.320312 144.390625 180.679688 145.980469 180.964844 147.585938 C 181.246094 149.195312 181.449219 150.8125 181.574219 152.4375 C 181.699219 154.066406 181.742188 155.695312 181.703125 157.328125 C 181.667969 158.960938 181.550781 160.585938 181.355469 162.207031 C 181.160156 163.828125 180.886719 165.433594 180.53125 167.027344 C 180.175781 168.621094 179.746094 170.191406 179.238281 171.742188 C 178.726562 173.296875 178.144531 174.816406 177.484375 176.3125 C 176.828125 177.804688 176.097656 179.265625 175.296875 180.6875 C 174.496094 182.109375 173.625 183.488281 172.6875 184.824219 C 171.75 186.164062 170.75 187.449219 169.6875 188.6875 C 168.621094 189.929688 167.5 191.113281 166.320312 192.242188 C 165.140625 193.367188 163.90625 194.4375 162.621094 195.445312 C 161.335938 196.453125 160.007812 197.394531 158.628906 198.273438 C 157.25 199.148438 155.832031 199.957031 154.375 200.695312 C 152.917969 201.433594 151.429688 202.097656 149.90625 202.6875 C 148.386719 203.28125 146.839844 203.796875 145.265625 204.234375 C 143.691406 204.675781 142.101562 205.035156 140.492188 205.320312 C 138.886719 205.601562 137.265625 205.808594 135.636719 205.929688 C 134.011719 206.054688 132.378906 206.101562 130.746094 206.066406 C 129.113281 206.027344 127.488281 205.914062 125.867188 205.71875 C 124.246094 205.523438 122.636719 205.25 121.042969 204.894531 C 119.449219 204.542969 117.875 204.109375 116.324219 203.605469 C 114.773438 203.097656 113.25 202.511719 111.753906 201.855469 C 110.261719 201.199219 108.804688 200.46875 107.378906 199.667969 C 105.957031 198.867188 104.578125 198 103.242188 197.0625 C 101.902344 196.128906 100.613281 195.128906 99.375 194.066406 C 98.136719 193.003906 96.953125 191.882812 95.824219 190.703125 C 94.695312 189.523438 93.628906 188.292969 92.621094 187.007812 C 91.613281 185.722656 90.671875 184.394531 89.792969 183.015625 C 88.917969 181.640625 88.109375 180.222656 87.371094 178.769531 C 86.632812 177.3125 85.96875 175.824219 85.378906 174.300781 C 84.789062 172.78125 84.273438 171.234375 83.832031 169.664062 C 83.394531 168.089844 83.035156 166.5 82.75 164.894531 C 82.46875 163.285156 82.265625 161.667969 82.140625 160.042969 C 82.015625 158.414062 81.972656 156.785156 82.007812 155.152344 C 82.046875 153.519531 82.160156 151.894531 82.359375 150.273438 C 82.554688 148.652344 82.828125 147.046875 83.183594 145.453125 C 83.539062 143.859375 83.96875 142.285156 84.476562 140.734375 C 84.988281 139.183594 85.570312 137.660156 86.226562 136.167969 C 86.886719 134.671875 87.617188 133.214844 88.417969 131.792969 C 89.21875 130.371094 90.089844 128.992188 91.027344 127.652344 C 91.964844 126.316406 92.964844 125.03125 94.027344 123.789062 C 95.09375 122.550781 96.214844 121.367188 97.394531 120.238281 C 98.574219 119.109375 99.808594 118.042969 101.089844 117.035156 C 102.375 116.027344 103.707031 115.085938 105.085938 114.207031 C 106.464844 113.332031 107.878906 112.523438 109.335938 111.785156 C 110.792969 111.046875 112.285156 110.382812 113.804688 109.792969 C 115.328125 109.199219 116.875 108.683594 118.449219 108.246094 C 120.023438 107.804688 121.613281 107.445312 123.21875 107.160156 C 124.828125 106.875 126.445312 106.671875 128.074219 106.546875 C 129.703125 106.421875 131.335938 106.378906 132.96875 106.414062 C 134.597656 106.449219 136.226562 106.566406 137.847656 106.761719 C 139.46875 106.957031 141.078125 107.230469 142.671875 107.585938 C 144.265625 107.9375 145.835938 108.367188 147.390625 108.875 C 148.941406 109.382812 150.464844 109.964844 151.957031 110.625 C 153.453125 111.28125 154.910156 112.011719 156.335938 112.8125 C 157.757812 113.613281 159.136719 114.480469 160.472656 115.417969 C 161.8125 116.351562 163.097656 117.351562 164.339844 118.414062 C 165.578125 119.476562 166.761719 120.597656 167.890625 121.777344 C 169.019531 122.957031 170.085938 124.1875 171.09375 125.472656 C 172.101562 126.757812 173.042969 128.085938 173.921875 129.464844 C 174.796875 130.839844 175.605469 132.253906 176.34375 133.710938 C 177.078125 135.167969 177.742188 136.65625 178.335938 138.175781 Z M 178.335938 138.175781 " fill-opacity="1" fill-rule="nonzero"/></g></g></g></g><g clip-path="url(#e35c9e63bf)"><g clip-path="url(#d7869f6330)"><g clip-path="url(#933b174cb8)"><g clip-path="url(#337db12e3f)"><path fill="#dc143c" d="M 231.765625 343.46875 C 229.539062 344.113281 227.300781 344.695312 225.046875 345.214844 C 222.792969 345.738281 220.527344 346.199219 218.253906 346.59375 C 215.980469 346.992188 213.699219 347.328125 211.410156 347.601562 C 209.125 347.871094 206.835938 348.082031 204.542969 348.230469 C 202.25 348.375 199.957031 348.457031 197.667969 348.480469 C 195.375 348.5 193.089844 348.457031 190.808594 348.347656 C 188.527344 348.242188 186.257812 348.074219 183.992188 347.839844 C 181.726562 347.609375 179.476562 347.3125 177.234375 346.957031 C 174.996094 346.597656 172.769531 346.179688 170.5625 345.695312 C 168.351562 345.214844 166.160156 344.671875 163.992188 344.066406 C 161.820312 343.460938 159.671875 342.796875 157.546875 342.070312 C 155.421875 341.34375 153.324219 340.5625 151.25 339.71875 C 149.175781 338.875 147.132812 337.972656 145.121094 337.011719 C 143.105469 336.054688 141.125 335.039062 139.175781 333.964844 C 137.226562 332.894531 135.316406 331.765625 133.4375 330.585938 C 131.5625 329.40625 129.722656 328.171875 127.925781 326.882812 C 126.125 325.597656 124.367188 324.261719 122.652344 322.875 C 120.9375 321.484375 119.265625 320.050781 117.640625 318.566406 C 116.015625 317.082031 114.4375 315.550781 112.902344 313.976562 C 111.371094 312.398438 109.890625 310.78125 108.457031 309.117188 C 107.027344 307.457031 105.644531 305.75 104.316406 304.007812 C 102.988281 302.261719 101.714844 300.480469 100.492188 298.660156 C 99.273438 296.839844 98.109375 294.984375 97 293.097656 C 95.894531 291.207031 94.84375 289.285156 93.851562 287.332031 C 92.859375 285.378906 91.925781 283.394531 91.050781 281.382812 C 90.179688 279.371094 89.367188 277.335938 88.613281 275.273438 C 87.863281 273.210938 87.171875 271.128906 86.546875 269.019531 C 85.917969 266.914062 85.355469 264.789062 84.851562 262.644531 C 84.351562 260.5 83.914062 258.339844 83.542969 256.164062 C 83.167969 253.992188 82.859375 251.804688 82.617188 249.605469 C 82.371094 247.40625 82.191406 245.199219 82.078125 242.984375 C 81.964844 240.769531 81.914062 238.550781 81.929688 236.328125 C 81.945312 234.101562 82.027344 231.878906 82.171875 229.652344 C 82.320312 227.425781 82.53125 225.199219 82.804688 222.980469 C 83.082031 220.757812 83.421875 218.542969 83.824219 216.332031 C 84.230469 214.121094 84.699219 211.921875 85.230469 209.734375 C 85.761719 207.542969 86.355469 205.367188 87.015625 203.203125 C 87.671875 201.039062 88.390625 198.890625 89.171875 196.761719 C 89.953125 194.628906 90.796875 192.519531 91.699219 190.429688 C 92.601562 188.339844 93.5625 186.273438 94.585938 184.230469 C 95.605469 182.183594 96.683594 180.167969 97.820312 178.179688 C 98.953125 176.1875 100.144531 174.230469 101.394531 172.300781 C 102.640625 170.371094 103.941406 168.472656 105.292969 166.609375 C 106.648438 164.746094 108.054688 162.917969 109.511719 161.125 C 110.96875 159.335938 112.476562 157.582031 114.03125 155.871094 C 115.585938 154.15625 117.1875 152.484375 118.835938 150.855469 C 120.484375 149.222656 122.175781 147.640625 123.914062 146.097656 C 125.648438 144.558594 127.425781 143.0625 129.242188 141.613281 C 131.0625 140.167969 132.917969 138.769531 134.8125 137.421875 C 136.707031 136.070312 138.636719 134.773438 140.605469 133.527344 C 142.570312 132.28125 144.566406 131.089844 146.59375 129.949219 C 148.625 128.808594 150.679688 127.726562 152.765625 126.695312 C 154.851562 125.667969 156.964844 124.695312 159.101562 123.78125 C 161.238281 122.863281 163.398438 122.007812 165.578125 121.210938 C 167.757812 120.410156 169.957031 119.671875 172.175781 118.992188 C 174.390625 118.3125 176.625 117.695312 178.871094 117.136719 C 181.117188 116.582031 183.375 116.085938 185.644531 115.652344 C 187.914062 115.214844 190.191406 114.84375 192.476562 114.535156 C 194.757812 114.226562 197.046875 113.976562 199.339844 113.792969 C 201.628906 113.609375 203.921875 113.488281 206.214844 113.433594 C 208.503906 113.375 210.792969 113.378906 213.078125 113.449219 C 215.363281 113.519531 217.640625 113.648438 219.910156 113.84375 C 222.179688 114.039062 224.441406 114.296875 226.6875 114.621094 C 228.9375 114.941406 231.167969 115.324219 233.390625 115.769531 C 235.609375 116.214844 237.808594 116.722656 239.992188 117.289062 C 242.175781 117.859375 244.335938 118.488281 246.472656 119.179688 C 248.613281 119.867188 250.726562 120.617188 252.816406 121.425781 C 254.90625 122.234375 256.96875 123.101562 259 124.027344 C 261.03125 124.953125 263.03125 125.9375 265 126.976562 C 266.96875 128.015625 268.902344 129.109375 270.800781 130.257812 C 272.699219 131.40625 274.558594 132.609375 276.382812 133.863281 C 278.203125 135.121094 279.988281 136.425781 281.726562 137.785156 C 283.46875 139.144531 285.164062 140.550781 286.816406 142.007812 C 288.472656 143.460938 290.078125 144.964844 291.636719 146.515625 C 293.199219 148.0625 294.710938 149.65625 296.171875 151.292969 C 297.632812 152.933594 299.046875 154.609375 300.40625 156.332031 C 301.765625 158.050781 303.070312 159.8125 304.324219 161.609375 C 305.578125 163.410156 306.773438 165.242188 307.914062 167.113281 C 309.054688 168.980469 310.140625 170.882812 311.167969 172.820312 C 312.195312 174.753906 313.164062 176.722656 314.070312 178.714844 C 314.980469 180.710938 315.828125 182.730469 316.617188 184.78125 C 317.40625 186.828125 318.128906 188.898438 318.792969 190.992188 C 319.460938 193.085938 320.058594 195.199219 320.597656 197.335938 C 321.136719 199.46875 321.613281 201.617188 322.023438 203.785156 C 322.433594 205.953125 322.78125 208.128906 323.066406 210.324219 C 323.347656 212.515625 323.566406 214.714844 323.71875 216.925781 C 323.871094 219.136719 323.957031 221.355469 323.980469 223.578125 C 324.003906 225.800781 323.960938 228.023438 323.851562 230.25 C 323.746094 232.476562 323.574219 234.703125 323.335938 236.925781 C 323.097656 239.148438 322.796875 241.367188 322.429688 243.582031 C 322.0625 245.796875 321.632812 248 321.140625 250.199219 C 320.644531 252.394531 320.085938 254.578125 319.464844 256.75 C 318.84375 258.921875 318.164062 261.082031 317.417969 263.222656 C 316.671875 265.363281 315.867188 267.484375 315 269.585938 C 314.132812 271.691406 313.207031 273.769531 312.21875 275.828125 C 311.234375 277.886719 310.1875 279.917969 309.085938 281.925781 L 202.957031 230.9375 Z M 231.765625 343.46875 " fill-opacity="1" fill-rule="nonzero"/></g></g></g></g><g clip-path="url(#fab2bbf60b)"><g clip-path="url(#ac49c9597a)"><g clip-path="url(#b76dab1ba1)"><g clip-path="url(#d281cb3385)"><path stroke-linecap="butt" transform="matrix(0.475419, -0.184757, 0.184639, 0.475115, 27.872801, -435.464083)" fill="none" stroke-linejoin="miter" d="M -356.358596 1076.703067 C -360.109166 1083.038755 -367.721702 1075.581226 -368.717647 1071.206416 C -371.348623 1059.659554 -359.441372 1051.04475 -349.087352 1050.935578 C -331.416796 1050.752866 -319.636654 1068.233606 -320.905282 1084.701624 C -322.727375 1108.370381 -346.291337 1123.600884 -368.808308 1120.797278 C -398.469147 1117.114868 -417.211454 1087.307394 -412.820534 1058.759062 C -407.334852 1023.097156 -371.215325 1000.819428 -336.634865 1006.834224 C -294.983813 1014.085749 -269.140868 1056.561562 -276.802396 1097.148979 C -278.032519 1103.65906 -280.050601 1110.018942 -282.79443 1116.047276 " stroke="#000000" stroke-width="9.8" stroke-opacity="1" stroke-miterlimit="4.1"/></g></g></g></g><g clip-path="url(#faf3520a9a)"><g clip-path="url(#f6414ad3a5)"><g clip-path="url(#f592b5130c)"><g clip-path="url(#144f0fef69)"><path stroke-linecap="butt" transform="matrix(-0.384867, 0.36051, 0.365727, 0.390086, -396.737079, -212.49277)" fill="none" stroke-linejoin="miter" d="M -356.357129 1076.701675 C -360.106978 1083.041183 -367.719057 1075.586127 -368.718249 1071.202236 C -371.343913 1059.659546 -359.443896 1051.04506 -349.084782 1050.934419 C -331.417783 1050.749184 -319.631839 1068.236001 -320.903661 1084.7025 C -322.725467 1108.37653 -346.292174 1123.597393 -368.803602 1120.799463 C -398.470957 1117.114556 -417.206795 1087.304831 -412.820262 1058.757072 C -407.336588 1023.096938 -371.213233 1000.817728 -336.638309 1006.836631 C -294.981417 1014.081234 -269.139295 1056.560014 -276.801648 1097.147664 C -278.031204 1103.661419 -280.052112 1110.015296 -282.796151 1116.04611 " stroke="#000000" stroke-width="9.8" stroke-opacity="1" stroke-miterlimit="4.1"/></g></g></g></g><g clip-path="url(#f8967ff696)"><g clip-path="url(#66c0c58181)"><g clip-path="url(#89861e8c2c)"><g clip-path="url(#93127b4809)"><path fill="#ffffff" d="M 224.078125 312.316406 C 223.425781 312.492188 222.765625 312.636719 222.097656 312.75 C 221.433594 312.863281 220.761719 312.945312 220.085938 312.992188 C 219.410156 313.039062 218.734375 313.050781 218.058594 313.03125 C 217.382812 313.011719 216.710938 312.960938 216.039062 312.875 C 215.367188 312.789062 214.703125 312.671875 214.042969 312.523438 C 213.382812 312.371094 212.734375 312.1875 212.089844 311.972656 C 211.449219 311.757812 210.820312 311.511719 210.203125 311.238281 C 209.585938 310.960938 208.984375 310.652344 208.398438 310.320312 C 207.808594 309.984375 207.242188 309.621094 206.6875 309.226562 C 206.136719 308.835938 205.605469 308.417969 205.097656 307.976562 C 204.585938 307.53125 204.097656 307.0625 203.632812 306.570312 C 203.171875 306.082031 202.730469 305.566406 202.316406 305.03125 C 201.902344 304.496094 201.515625 303.945312 201.15625 303.371094 C 200.796875 302.796875 200.46875 302.210938 200.167969 301.605469 C 199.863281 301 199.59375 300.382812 199.351562 299.75 C 199.113281 299.117188 198.902344 298.476562 198.726562 297.824219 C 198.546875 297.171875 198.402344 296.511719 198.289062 295.84375 C 198.175781 295.175781 198.097656 294.507812 198.050781 293.832031 C 198.003906 293.15625 197.992188 292.480469 198.011719 291.804688 C 198.03125 291.128906 198.082031 290.457031 198.167969 289.785156 C 198.253906 289.117188 198.371094 288.449219 198.523438 287.792969 C 198.675781 287.132812 198.859375 286.480469 199.074219 285.839844 C 199.289062 285.199219 199.535156 284.570312 199.808594 283.953125 C 200.085938 283.335938 200.394531 282.734375 200.730469 282.148438 C 201.066406 281.558594 201.429688 280.992188 201.820312 280.441406 C 202.214844 279.886719 202.632812 279.359375 203.074219 278.847656 C 203.519531 278.335938 203.988281 277.851562 204.480469 277.386719 C 204.972656 276.921875 205.484375 276.480469 206.019531 276.070312 C 206.554688 275.65625 207.109375 275.269531 207.683594 274.910156 C 208.257812 274.546875 208.847656 274.21875 209.453125 273.917969 C 210.058594 273.613281 210.675781 273.34375 211.308594 273.101562 C 211.941406 272.863281 212.582031 272.652344 213.234375 272.476562 L 218.65625 292.394531 Z M 224.078125 312.316406 " fill-opacity="1" fill-rule="nonzero"/></g></g></g></g><g clip-path="url(#eb41c295c4)"><g clip-path="url(#b203c67281)"><g clip-path="url(#414d6325e4)"><g clip-path="url(#942c9d13e4)"><path fill="#ffffff" d="M 112.085938 203.644531 C 112.390625 204.429688 112.617188 205.234375 112.761719 206.0625 C 112.90625 206.890625 112.96875 207.726562 112.953125 208.566406 C 112.933594 209.410156 112.832031 210.242188 112.648438 211.0625 C 112.46875 211.882812 112.207031 212.679688 111.867188 213.449219 C 111.527344 214.21875 111.117188 214.949219 110.632812 215.640625 C 110.148438 216.328125 109.605469 216.964844 108.996094 217.546875 C 108.386719 218.128906 107.726562 218.644531 107.019531 219.097656 C 106.308594 219.546875 105.558594 219.925781 104.777344 220.230469 C 103.992188 220.535156 103.183594 220.761719 102.355469 220.910156 C 101.527344 221.054688 100.691406 221.117188 99.847656 221.101562 C 99.007812 221.082031 98.175781 220.980469 97.355469 220.800781 C 96.53125 220.617188 95.734375 220.355469 94.964844 220.019531 C 94.195312 219.679688 93.464844 219.269531 92.777344 218.785156 C 92.085938 218.304688 91.449219 217.757812 90.867188 217.148438 C 90.285156 216.542969 89.769531 215.882812 89.316406 215.171875 C 88.867188 214.464844 88.488281 213.71875 88.183594 212.933594 C 87.878906 212.148438 87.652344 211.34375 87.507812 210.515625 C 87.359375 209.683594 87.296875 208.851562 87.316406 208.007812 C 87.335938 207.167969 87.4375 206.335938 87.617188 205.515625 C 87.800781 204.691406 88.0625 203.898438 88.402344 203.128906 C 88.742188 202.355469 89.152344 201.628906 89.636719 200.9375 C 90.117188 200.25 90.664062 199.613281 91.273438 199.03125 C 91.882812 198.449219 92.539062 197.933594 93.25 197.480469 C 93.960938 197.027344 94.707031 196.648438 95.492188 196.34375 C 96.277344 196.039062 97.085938 195.816406 97.914062 195.667969 C 98.742188 195.523438 99.578125 195.457031 100.417969 195.476562 C 101.261719 195.496094 102.09375 195.59375 102.914062 195.777344 C 103.738281 195.960938 104.53125 196.21875 105.304688 196.558594 C 106.074219 196.898438 106.804688 197.308594 107.492188 197.792969 C 108.183594 198.273438 108.816406 198.820312 109.398438 199.425781 C 109.980469 200.035156 110.5 200.695312 110.949219 201.402344 C 111.402344 202.113281 111.78125 202.859375 112.085938 203.644531 Z M 112.085938 203.644531 " fill-opacity="1" fill-rule="nonzero"/></g></g></g></g><g clip-path="url(#9f581b68e2)"><g clip-path="url(#267d5f6e65)"><g clip-path="url(#d03ef6d0e1)"><g clip-path="url(#fcbb741323)"><path fill="#ffffff" d="M 282.539062 221.414062 C 282.84375 222.199219 283.066406 223.003906 283.214844 223.835938 C 283.359375 224.664062 283.421875 225.496094 283.402344 226.339844 C 283.386719 227.179688 283.285156 228.011719 283.101562 228.832031 C 282.917969 229.65625 282.65625 230.449219 282.320312 231.21875 C 281.980469 231.992188 281.566406 232.71875 281.085938 233.410156 C 280.601562 234.097656 280.054688 234.734375 279.449219 235.316406 C 278.839844 235.898438 278.179688 236.414062 277.46875 236.867188 C 276.757812 237.320312 276.011719 237.699219 275.226562 238.003906 C 274.441406 238.308594 273.636719 238.53125 272.808594 238.679688 C 271.976562 238.824219 271.140625 238.890625 270.300781 238.871094 C 269.460938 238.851562 268.628906 238.753906 267.804688 238.570312 C 266.984375 238.386719 266.1875 238.128906 265.417969 237.789062 C 264.648438 237.449219 263.917969 237.039062 263.226562 236.554688 C 262.539062 236.074219 261.902344 235.527344 261.320312 234.921875 C 260.738281 234.3125 260.222656 233.652344 259.769531 232.945312 C 259.316406 232.234375 258.941406 231.488281 258.636719 230.703125 C 258.332031 229.917969 258.105469 229.113281 257.960938 228.285156 C 257.8125 227.457031 257.75 226.621094 257.769531 225.78125 C 257.789062 224.9375 257.886719 224.105469 258.070312 223.285156 C 258.253906 222.464844 258.515625 221.667969 258.851562 220.898438 C 259.191406 220.128906 259.605469 219.398438 260.085938 218.707031 C 260.570312 218.019531 261.117188 217.382812 261.722656 216.800781 C 262.332031 216.21875 262.992188 215.703125 263.703125 215.25 C 264.414062 214.800781 265.160156 214.421875 265.945312 214.117188 C 266.730469 213.8125 267.535156 213.585938 268.367188 213.4375 C 269.195312 213.292969 270.03125 213.230469 270.871094 213.246094 C 271.714844 213.265625 272.542969 213.367188 273.367188 213.546875 C 274.1875 213.730469 274.984375 213.992188 275.753906 214.328125 C 276.523438 214.667969 277.253906 215.078125 277.945312 215.5625 C 278.632812 216.042969 279.269531 216.589844 279.851562 217.199219 C 280.433594 217.804688 280.949219 218.464844 281.402344 219.175781 C 281.855469 219.882812 282.230469 220.628906 282.539062 221.414062 Z M 282.539062 221.414062 " fill-opacity="1" fill-rule="nonzero"/></g></g></g></g><g clip-path="url(#382931730e)"><g clip-path="url(#c84d717eea)"><g clip-path="url(#36e193f970)"><g clip-path="url(#76ea0ad191)"><path fill="#ffffff" d="M 158.277344 161.25 C 158.582031 162.035156 158.804688 162.84375 158.953125 163.671875 C 159.097656 164.5 159.160156 165.335938 159.140625 166.175781 C 159.125 167.015625 159.023438 167.847656 158.839844 168.667969 C 158.65625 169.492188 158.398438 170.285156 158.058594 171.058594 C 157.71875 171.828125 157.304688 172.558594 156.824219 173.246094 C 156.339844 173.933594 155.792969 174.570312 155.1875 175.152344 C 154.578125 175.734375 153.917969 176.25 153.207031 176.703125 C 152.5 177.15625 151.75 177.535156 150.964844 177.839844 C 150.179688 178.144531 149.375 178.371094 148.546875 178.515625 C 147.714844 178.660156 146.878906 178.726562 146.039062 178.707031 C 145.199219 178.6875 144.367188 178.589844 143.542969 178.40625 C 142.722656 178.222656 141.925781 177.964844 141.15625 177.625 C 140.386719 177.285156 139.65625 176.875 138.964844 176.394531 C 138.277344 175.910156 137.640625 175.363281 137.058594 174.757812 C 136.476562 174.148438 135.960938 173.492188 135.507812 172.78125 C 135.054688 172.070312 134.679688 171.324219 134.375 170.539062 C 134.070312 169.757812 133.84375 168.949219 133.699219 168.121094 C 133.550781 167.292969 133.488281 166.457031 133.507812 165.617188 C 133.527344 164.773438 133.625 163.945312 133.808594 163.121094 C 133.992188 162.300781 134.253906 161.503906 134.589844 160.734375 C 134.929688 159.964844 135.34375 159.234375 135.824219 158.546875 C 136.308594 157.855469 136.855469 157.21875 137.460938 156.640625 C 138.070312 156.058594 138.730469 155.539062 139.441406 155.085938 C 140.152344 154.636719 140.898438 154.257812 141.683594 153.953125 C 142.46875 153.648438 143.273438 153.421875 144.105469 153.277344 C 144.933594 153.128906 145.769531 153.066406 146.609375 153.085938 C 147.453125 153.101562 148.28125 153.203125 149.105469 153.382812 C 149.925781 153.566406 150.722656 153.828125 151.492188 154.167969 C 152.261719 154.503906 152.992188 154.914062 153.683594 155.398438 C 154.371094 155.882812 155.007812 156.425781 155.589844 157.035156 C 156.171875 157.640625 156.6875 158.300781 157.140625 159.011719 C 157.59375 159.71875 157.972656 160.46875 158.277344 161.25 Z M 158.277344 161.25 " fill-opacity="1" fill-rule="nonzero"/></g></g></g></g><g clip-path="url(#64295c5c7e)"><g clip-path="url(#e8230bc0cc)"><g clip-path="url(#27439b2597)"><g clip-path="url(#7d96454456)"><path fill="#ffffff" d="M 228.832031 169.742188 C 229.109375 170.457031 229.351562 171.1875 229.558594 171.925781 C 229.765625 172.667969 229.9375 173.417969 230.070312 174.175781 C 230.203125 174.933594 230.300781 175.695312 230.359375 176.464844 C 230.417969 177.230469 230.4375 178 230.421875 178.769531 C 230.402344 179.535156 230.347656 180.304688 230.253906 181.066406 C 230.164062 181.832031 230.035156 182.589844 229.867188 183.339844 C 229.699219 184.089844 229.496094 184.832031 229.257812 185.5625 C 229.015625 186.296875 228.742188 187.011719 228.429688 187.71875 C 228.121094 188.421875 227.777344 189.109375 227.398438 189.78125 C 227.019531 190.449219 226.609375 191.101562 226.167969 191.730469 C 225.726562 192.359375 225.253906 192.96875 224.753906 193.550781 C 224.253906 194.136719 223.722656 194.695312 223.167969 195.226562 C 222.609375 195.757812 222.03125 196.261719 221.425781 196.738281 C 220.820312 197.210938 220.191406 197.65625 219.542969 198.070312 C 218.890625 198.484375 218.222656 198.863281 217.535156 199.210938 C 216.851562 199.558594 216.148438 199.871094 215.429688 200.152344 C 214.710938 200.429688 213.984375 200.671875 213.242188 200.878906 C 212.5 201.085938 211.75 201.257812 210.992188 201.390625 C 210.234375 201.527344 209.472656 201.621094 208.703125 201.679688 C 207.9375 201.738281 207.167969 201.761719 206.398438 201.742188 C 205.628906 201.726562 204.863281 201.671875 204.097656 201.578125 C 203.332031 201.488281 202.574219 201.359375 201.824219 201.191406 C 201.070312 201.023438 200.332031 200.824219 199.597656 200.582031 C 198.867188 200.34375 198.148438 200.070312 197.445312 199.757812 C 196.742188 199.449219 196.054688 199.105469 195.382812 198.726562 C 194.710938 198.351562 194.0625 197.941406 193.429688 197.5 C 192.800781 197.058594 192.191406 196.585938 191.609375 196.085938 C 191.023438 195.585938 190.46875 195.058594 189.933594 194.5 C 189.402344 193.945312 188.898438 193.363281 188.425781 192.757812 C 187.949219 192.152344 187.503906 191.527344 187.089844 190.878906 C 186.679688 190.230469 186.296875 189.5625 185.949219 188.875 C 185.601562 188.1875 185.289062 187.488281 185.011719 186.769531 C 184.730469 186.054688 184.488281 185.324219 184.28125 184.582031 C 184.074219 183.839844 183.90625 183.09375 183.773438 182.335938 C 183.636719 181.578125 183.542969 180.8125 183.484375 180.046875 C 183.425781 179.28125 183.40625 178.511719 183.421875 177.742188 C 183.4375 176.972656 183.492188 176.207031 183.585938 175.441406 C 183.679688 174.679688 183.808594 173.921875 183.976562 173.167969 C 184.140625 172.417969 184.347656 171.675781 184.585938 170.945312 C 184.824219 170.214844 185.101562 169.496094 185.410156 168.792969 C 185.722656 168.089844 186.066406 167.402344 186.441406 166.730469 C 186.820312 166.058594 187.230469 165.410156 187.671875 164.78125 C 188.113281 164.148438 188.585938 163.542969 189.089844 162.957031 C 189.589844 162.375 190.117188 161.816406 190.675781 161.285156 C 191.230469 160.75 191.8125 160.25 192.417969 159.773438 C 193.023438 159.296875 193.652344 158.855469 194.300781 158.441406 C 194.949219 158.027344 195.617188 157.648438 196.304688 157.296875 C 196.992188 156.949219 197.695312 156.636719 198.410156 156.359375 C 199.128906 156.078125 199.859375 155.835938 200.601562 155.628906 C 201.339844 155.421875 202.089844 155.25 202.851562 155.117188 C 203.609375 154.984375 204.371094 154.886719 205.136719 154.828125 C 205.90625 154.769531 206.675781 154.75 207.445312 154.765625 C 208.214844 154.785156 208.980469 154.839844 209.746094 154.929688 C 210.507812 155.023438 211.265625 155.152344 212.019531 155.316406 C 212.769531 155.484375 213.511719 155.6875 214.242188 155.925781 C 214.972656 156.167969 215.691406 156.441406 216.398438 156.75 C 217.101562 157.0625 217.789062 157.40625 218.460938 157.78125 C 219.128906 158.160156 219.78125 158.570312 220.410156 159.011719 C 221.042969 159.453125 221.648438 159.921875 222.234375 160.421875 C 222.816406 160.925781 223.375 161.453125 223.90625 162.007812 C 224.4375 162.566406 224.941406 163.144531 225.417969 163.75 C 225.894531 164.355469 226.335938 164.984375 226.75 165.632812 C 227.164062 166.28125 227.542969 166.949219 227.890625 167.636719 C 228.238281 168.320312 228.550781 169.023438 228.832031 169.742188 Z M 228.832031 169.742188 " fill-opacity="1" fill-rule="nonzero"/></g></g></g></g><g clip-path="url(#6512dcb2e4)"><g clip-path="url(#20414aa101)"><g clip-path="url(#a5aae9b53c)"><g clip-path="url(#8fe3582037)"><path fill="#ffffff" d="M 112.605469 311.160156 C 112.882812 311.878906 113.195312 312.582031 113.539062 313.269531 C 113.886719 313.957031 114.261719 314.625 114.671875 315.273438 C 115.082031 315.925781 115.519531 316.554688 115.988281 317.164062 C 116.457031 317.769531 116.953125 318.355469 117.476562 318.914062 C 118 319.472656 118.550781 320.003906 119.125 320.507812 C 119.699219 321.015625 120.292969 321.488281 120.910156 321.933594 C 121.53125 322.382812 122.167969 322.796875 122.824219 323.179688 C 123.480469 323.5625 124.15625 323.910156 124.84375 324.226562 C 125.53125 324.542969 126.234375 324.824219 126.949219 325.070312 C 127.664062 325.316406 128.386719 325.523438 129.121094 325.699219 C 129.855469 325.871094 130.59375 326.007812 131.339844 326.109375 C 132.085938 326.207031 132.832031 326.269531 133.582031 326.292969 C 134.332031 326.320312 135.078125 326.304688 135.824219 326.253906 C 136.574219 326.203125 137.316406 326.117188 138.050781 325.992188 C 138.789062 325.867188 139.515625 325.703125 140.238281 325.503906 C 140.957031 325.304688 141.664062 325.070312 142.359375 324.800781 C 143.054688 324.53125 143.738281 324.226562 144.402344 323.886719 C 145.066406 323.546875 145.714844 323.175781 146.339844 322.769531 C 146.96875 322.363281 147.578125 321.929688 148.160156 321.460938 C 148.746094 320.996094 149.308594 320.5 149.84375 319.976562 C 150.378906 319.449219 150.886719 318.898438 151.371094 318.324219 C 151.851562 317.746094 152.304688 317.148438 152.730469 316.523438 C 153.152344 315.902344 153.546875 315.257812 153.90625 314.59375 C 154.269531 313.929688 154.597656 313.246094 154.890625 312.550781 C 155.1875 311.851562 155.445312 311.140625 155.671875 310.414062 C 155.898438 309.6875 156.089844 308.949219 156.246094 308.203125 C 156.398438 307.457031 156.519531 306.703125 156.601562 305.945312 C 156.683594 305.183594 156.726562 304.421875 156.738281 303.65625 C 156.746094 302.890625 156.71875 302.125 156.652344 301.359375 C 156.589844 300.59375 156.488281 299.835938 156.347656 299.078125 C 156.210938 298.324219 156.039062 297.574219 155.828125 296.835938 C 155.621094 296.09375 155.375 295.367188 155.097656 294.648438 C 154.820312 293.929688 154.507812 293.230469 154.160156 292.542969 C 153.816406 291.855469 153.4375 291.183594 153.027344 290.535156 C 152.621094 289.882812 152.179688 289.253906 151.710938 288.648438 C 151.242188 288.039062 150.746094 287.457031 150.222656 286.898438 C 149.699219 286.339844 149.152344 285.804688 148.578125 285.300781 C 148.003906 284.796875 147.40625 284.320312 146.789062 283.875 C 146.171875 283.429688 145.535156 283.015625 144.875 282.632812 C 144.21875 282.25 143.546875 281.898438 142.855469 281.582031 C 142.167969 281.265625 141.464844 280.988281 140.75 280.742188 C 140.035156 280.496094 139.3125 280.285156 138.578125 280.113281 C 137.847656 279.9375 137.105469 279.800781 136.363281 279.703125 C 135.617188 279.601562 134.871094 279.539062 134.121094 279.515625 C 133.371094 279.492188 132.621094 279.503906 131.875 279.554688 C 131.128906 279.605469 130.386719 279.691406 129.648438 279.820312 C 128.914062 279.945312 128.183594 280.105469 127.464844 280.304688 C 126.746094 280.503906 126.039062 280.738281 125.339844 281.007812 C 124.644531 281.277344 123.964844 281.582031 123.300781 281.921875 C 122.632812 282.261719 121.988281 282.636719 121.359375 283.039062 C 120.730469 283.445312 120.125 283.882812 119.539062 284.347656 C 118.953125 284.816406 118.394531 285.3125 117.859375 285.835938 C 117.320312 286.359375 116.8125 286.910156 116.332031 287.488281 C 115.847656 288.0625 115.394531 288.664062 114.972656 289.285156 C 114.546875 289.910156 114.15625 290.554688 113.792969 291.21875 C 113.433594 291.882812 113.105469 292.5625 112.808594 293.261719 C 112.515625 293.957031 112.253906 294.671875 112.027344 295.398438 C 111.800781 296.121094 111.613281 296.859375 111.457031 297.605469 C 111.300781 298.351562 111.183594 299.105469 111.101562 299.863281 C 111.019531 300.625 110.972656 301.386719 110.964844 302.152344 C 110.957031 302.921875 110.984375 303.683594 111.046875 304.449219 C 111.113281 305.214844 111.214844 305.976562 111.351562 306.730469 C 111.488281 307.488281 111.664062 308.234375 111.871094 308.976562 C 112.082031 309.714844 112.324219 310.445312 112.605469 311.160156 Z M 112.605469 311.160156 " fill-opacity="1" fill-rule="nonzero"/></g></g></g></g><g clip-path="url(#1a87c98278)"><g clip-path="url(#7e6856fb68)"><g clip-path="url(#99fce9e10b)"><g clip-path="url(#a5314355cc)"><path fill="#ffffff" d="M 142.378906 242.277344 C 142.582031 242.796875 142.835938 243.296875 143.132812 243.769531 C 143.429688 244.246094 143.769531 244.6875 144.152344 245.09375 C 144.535156 245.5 144.949219 245.867188 145.402344 246.191406 C 145.851562 246.519531 146.328125 246.796875 146.832031 247.027344 C 147.332031 247.257812 147.851562 247.433594 148.386719 247.5625 C 148.921875 247.6875 149.460938 247.761719 150.007812 247.777344 C 150.554688 247.796875 151.097656 247.757812 151.632812 247.667969 C 152.171875 247.578125 152.695312 247.433594 153.199219 247.234375 C 153.707031 247.039062 154.191406 246.792969 154.648438 246.496094 C 155.105469 246.203125 155.53125 245.863281 155.921875 245.480469 C 156.3125 245.097656 156.664062 244.679688 156.972656 244.226562 C 157.28125 243.769531 157.542969 243.289062 157.757812 242.78125 C 157.972656 242.269531 158.136719 241.746094 158.25 241.199219 C 158.363281 240.65625 158.421875 240.105469 158.429688 239.546875 C 158.433594 238.988281 158.386719 238.433594 158.289062 237.882812 C 158.1875 237.332031 158.035156 236.792969 157.832031 236.269531 C 157.628906 235.746094 157.378906 235.25 157.082031 234.773438 C 156.78125 234.300781 156.441406 233.859375 156.058594 233.453125 C 155.679688 233.042969 155.261719 232.679688 154.8125 232.351562 C 154.359375 232.027344 153.882812 231.75 153.382812 231.519531 C 152.878906 231.289062 152.359375 231.109375 151.824219 230.984375 C 151.292969 230.859375 150.75 230.785156 150.203125 230.769531 C 149.65625 230.75 149.117188 230.785156 148.578125 230.878906 C 148.042969 230.96875 147.519531 231.113281 147.011719 231.3125 C 146.503906 231.507812 146.023438 231.753906 145.5625 232.050781 C 145.105469 232.34375 144.683594 232.683594 144.289062 233.066406 C 143.898438 233.449219 143.550781 233.867188 143.242188 234.320312 C 142.933594 234.773438 142.671875 235.257812 142.457031 235.765625 C 142.242188 236.273438 142.078125 236.800781 141.964844 237.347656 C 141.851562 237.890625 141.789062 238.441406 141.785156 239 C 141.777344 239.558594 141.824219 240.113281 141.925781 240.664062 C 142.027344 241.214844 142.175781 241.753906 142.378906 242.277344 Z M 142.378906 242.277344 " fill-opacity="1" fill-rule="nonzero"/></g></g></g></g><g clip-path="url(#758307a73d)"><g clip-path="url(#38d3d96295)"><g clip-path="url(#8233e8d1cb)"><g clip-path="url(#689923ae5c)"><path fill="#ffffff" d="M 276.875 179.316406 C 277.078125 179.839844 277.328125 180.339844 277.625 180.8125 C 277.925781 181.285156 278.265625 181.726562 278.644531 182.136719 C 279.027344 182.542969 279.445312 182.910156 279.894531 183.234375 C 280.34375 183.558594 280.820312 183.835938 281.324219 184.066406 C 281.828125 184.296875 282.34375 184.476562 282.878906 184.601562 C 283.414062 184.730469 283.957031 184.800781 284.5 184.820312 C 285.046875 184.835938 285.589844 184.800781 286.128906 184.710938 C 286.664062 184.617188 287.1875 184.472656 287.695312 184.277344 C 288.199219 184.078125 288.683594 183.832031 289.140625 183.539062 C 289.597656 183.242188 290.023438 182.902344 290.414062 182.523438 C 290.804688 182.140625 291.15625 181.722656 291.464844 181.265625 C 291.773438 180.8125 292.035156 180.332031 292.25 179.820312 C 292.464844 179.3125 292.628906 178.785156 292.742188 178.242188 C 292.855469 177.699219 292.914062 177.144531 292.921875 176.585938 C 292.929688 176.027344 292.882812 175.472656 292.78125 174.921875 C 292.679688 174.371094 292.527344 173.835938 292.324219 173.3125 C 292.121094 172.789062 291.871094 172.289062 291.574219 171.816406 C 291.273438 171.34375 290.933594 170.902344 290.554688 170.492188 C 290.171875 170.085938 289.753906 169.71875 289.304688 169.394531 C 288.851562 169.070312 288.375 168.792969 287.875 168.5625 C 287.371094 168.332031 286.855469 168.152344 286.320312 168.027344 C 285.785156 167.898438 285.242188 167.828125 284.699219 167.808594 C 284.152344 167.792969 283.609375 167.828125 283.070312 167.917969 C 282.535156 168.011719 282.011719 168.15625 281.503906 168.351562 C 280.996094 168.550781 280.515625 168.796875 280.058594 169.089844 C 279.597656 169.386719 279.175781 169.726562 278.785156 170.105469 C 278.394531 170.488281 278.042969 170.90625 277.734375 171.363281 C 277.425781 171.816406 277.164062 172.296875 276.949219 172.808594 C 276.734375 173.316406 276.570312 173.84375 276.457031 174.386719 C 276.34375 174.929688 276.285156 175.484375 276.277344 176.042969 C 276.269531 176.601562 276.316406 177.15625 276.417969 177.707031 C 276.519531 178.257812 276.671875 178.792969 276.875 179.316406 Z M 276.875 179.316406 " fill-opacity="1" fill-rule="nonzero"/></g></g></g></g><g clip-path="url(#60a7b7b0f0)"><g clip-path="url(#3cd09892fb)"><g clip-path="url(#a075f4e985)"><g clip-path="url(#d5468435c1)"><path fill="#ffffff" d="M 222.53125 137.808594 C 222.734375 138.328125 222.984375 138.828125 223.28125 139.300781 C 223.582031 139.777344 223.921875 140.21875 224.304688 140.625 C 224.683594 141.03125 225.101562 141.398438 225.550781 141.726562 C 226.003906 142.050781 226.480469 142.328125 226.980469 142.558594 C 227.484375 142.789062 228.003906 142.964844 228.535156 143.09375 C 229.070312 143.21875 229.613281 143.292969 230.160156 143.308594 C 230.707031 143.328125 231.246094 143.292969 231.785156 143.199219 C 232.320312 143.109375 232.84375 142.964844 233.351562 142.765625 C 233.859375 142.570312 234.339844 142.324219 234.796875 142.027344 C 235.257812 141.734375 235.679688 141.394531 236.070312 141.011719 C 236.464844 140.628906 236.8125 140.210938 237.121094 139.757812 C 237.429688 139.300781 237.691406 138.820312 237.90625 138.3125 C 238.121094 137.800781 238.285156 137.277344 238.398438 136.730469 C 238.511719 136.1875 238.570312 135.636719 238.578125 135.078125 C 238.585938 134.519531 238.539062 133.964844 238.4375 133.414062 C 238.335938 132.863281 238.1875 132.324219 237.984375 131.800781 C 237.78125 131.277344 237.527344 130.78125 237.230469 130.304688 C 236.933594 129.832031 236.59375 129.390625 236.210938 128.984375 C 235.828125 128.574219 235.414062 128.210938 234.960938 127.882812 C 234.511719 127.558594 234.035156 127.28125 233.53125 127.050781 C 233.027344 126.820312 232.511719 126.640625 231.976562 126.515625 C 231.441406 126.390625 230.902344 126.316406 230.355469 126.300781 C 229.808594 126.28125 229.265625 126.316406 228.730469 126.410156 C 228.191406 126.5 227.667969 126.644531 227.164062 126.84375 C 226.65625 127.039062 226.171875 127.285156 225.714844 127.582031 C 225.257812 127.875 224.832031 128.214844 224.441406 128.597656 C 224.050781 128.980469 223.699219 129.398438 223.390625 129.851562 C 223.082031 130.304688 222.820312 130.789062 222.605469 131.296875 C 222.390625 131.804688 222.226562 132.332031 222.113281 132.878906 C 222 133.421875 221.941406 133.972656 221.933594 134.53125 C 221.929688 135.089844 221.976562 135.644531 222.074219 136.195312 C 222.175781 136.746094 222.328125 137.285156 222.53125 137.808594 Z M 222.53125 137.808594 " fill-opacity="1" fill-rule="nonzero"/></g></g></g></g></svg>